<svg width="892" height="180" viewBox="0 0 892 180" fill="none" xmlns="http://www.w3.org/2000/svg">
<path fill-rule="evenodd" clip-rule="evenodd" d="M7.68038 131.928C2.29061 137.896 2.29376 137.899 2.29376 137.899L2.3064 137.913L2.33166 137.94L2.41079 138.024C2.4762 138.093 2.56683 138.188 2.68211 138.308C2.91266 138.547 3.24199 138.886 3.66554 139.31C4.51236 140.16 5.73763 141.357 7.30486 142.807C10.4355 145.702 14.952 149.623 20.5616 153.791C31.704 162.069 47.5343 171.605 65.6345 175.727C128.089 189.953 185.242 166.29 241.175 139.602C242.256 139.087 243.264 138.564 244.144 138.033C244.907 137.572 246.055 136.824 247.059 135.753C247.51 135.272 251.214 131.247 248.975 125.712C248.032 123.38 246.44 122.144 245.535 121.579C244.592 120.99 243.708 120.698 243.15 120.544C241.214 120.01 238.852 120.027 237.079 120.087C235.001 120.157 232.466 120.358 229.625 120.642C223.284 121.276 214.63 122.409 204.817 123.693C197.331 124.673 189.171 125.741 180.85 126.744C161.326 129.095 140.488 131.145 123.312 131.208C114.708 131.24 107.298 130.77 101.558 129.687C95.4333 128.531 92.685 126.93 91.837 126.005C90.7313 124.799 90.4987 124.065 90.4484 123.854C90.4143 123.711 90.3717 123.479 90.5562 122.923C91.0696 121.375 92.8656 118.804 96.8947 115.438C103.714 109.741 113.494 104.466 122.277 99.7286C123.656 98.9851 125.009 98.2549 126.323 97.5384C128.204 96.5129 129.975 95.4822 131.175 94.5302C131.498 94.2743 132.024 93.8346 132.554 93.232C132.56 93.2247 132.568 93.2162 132.576 93.2063C132.871 92.8744 134.43 91.1152 134.758 88.2509C134.975 86.3627 134.622 84.1925 133.388 82.2927C132.277 80.5814 130.877 79.7475 130.032 79.3595C128.508 78.6596 127.14 78.6597 126.762 78.6597C125.084 78.6597 123.047 79.2136 121.746 79.5798C120.069 80.0517 117.976 80.7159 115.589 81.5168C106.059 84.7149 90.5595 90.528 74.2491 96.8061C57.8955 103.101 40.5889 109.917 27.3773 115.156C20.77 117.777 15.1836 120.004 11.2485 121.576C9.28092 122.363 7.72602 122.985 6.66259 123.412L5.02716 124.068C5.02716 124.068 5.02518 124.068 7.68038 131.928ZM7.68038 131.928C6.64424 128.858 5.02716 124.068 5.02716 124.068C2.55974 125.059 0.727029 127.359 0.172633 130.162C-0.381764 132.966 0.417378 135.883 2.29075 137.896C2.29075 137.896 5.5756 134.259 7.68038 131.928Z" fill="black"/>
<path fill-rule="evenodd" clip-rule="evenodd" d="M222.05 73.369C223.676 74.5296 224.656 76.506 224.656 78.6252V106.041C224.656 107.831 224.016 110.081 222.11 111.623C220.536 112.897 218.872 113.027 218.076 113.031C216.475 113.037 214.887 112.49 213.886 112.111C211.682 111.276 208.821 109.827 206.117 108.457L205.908 108.351C202.988 106.872 200.046 105.384 197.374 104.255C194.503 103.043 192.755 102.611 192.014 102.611C191.272 102.611 189.524 103.043 186.653 104.255C183.982 105.384 181.039 106.872 178.119 108.351L177.91 108.457C175.206 109.827 172.345 111.276 170.141 112.111C169.14 112.49 167.552 113.037 165.951 113.031C165.155 113.027 163.491 112.897 161.917 111.623C160.011 110.081 159.371 107.831 159.371 106.041V78.6252C159.371 76.506 160.351 74.5296 161.977 73.369L161.998 73.354L162.046 73.3195L162.224 73.1943C162.376 73.0866 162.597 72.9317 162.879 72.7362C163.442 72.3454 164.249 71.7916 165.239 71.129C167.214 69.8069 169.943 68.0357 172.934 66.2562C175.907 64.4873 179.235 62.6531 182.392 61.2447C185.347 59.9262 188.885 58.635 192.014 58.635C195.142 58.635 198.68 59.9262 201.635 61.2447C204.792 62.6531 208.12 64.4873 211.093 66.2562C214.084 68.0357 216.813 69.8069 218.788 71.129C219.778 71.7916 220.585 72.3454 221.148 72.7362C221.43 72.9317 221.651 73.0866 221.804 73.1943L221.981 73.3195L222.029 73.354L222.05 73.369Z" fill="black"/>
<path fill-rule="evenodd" clip-rule="evenodd" d="M222.05 14.7341C223.676 15.8948 224.656 17.8711 224.656 19.9904V47.4062C224.656 49.1961 224.016 51.4458 222.11 52.9877C220.536 54.2621 218.872 54.3924 218.076 54.3956C216.475 54.402 214.887 53.8549 213.886 53.4758C211.682 52.6415 208.821 51.1921 206.117 49.8221L205.908 49.7165C202.988 48.2375 200.045 46.749 197.374 45.6205C194.503 44.4079 192.755 43.9762 192.014 43.9762C191.272 43.9762 189.524 44.4079 186.653 45.6205C183.982 46.749 181.039 48.2375 178.119 49.7165L177.91 49.8222C175.206 51.1922 172.345 52.6415 170.141 53.4758C169.14 53.8549 167.552 54.402 165.951 54.3956C165.155 54.3924 163.491 54.2621 161.917 52.9877C160.011 51.4457 159.371 49.1961 159.371 47.4062V19.9904C159.371 17.8711 160.351 15.8948 161.977 14.7341L161.998 14.7192L162.046 14.6847L162.224 14.5594C162.376 14.4518 162.597 14.2968 162.879 14.1013C163.442 13.7106 164.249 13.1567 165.239 12.4941C167.214 11.172 169.943 9.40082 172.934 7.62129C175.907 5.85237 179.235 4.01826 182.392 2.60979C185.347 1.29133 188.885 0.00012207 192.014 0.00012207C195.142 0.00012207 198.68 1.29133 201.635 2.60979C204.792 4.01826 208.12 5.85237 211.093 7.62129C214.084 9.40082 216.813 11.172 218.788 12.4941C219.778 13.1567 220.585 13.7106 221.148 14.1013C221.43 14.2968 221.651 14.4518 221.804 14.5594L222.029 14.7192L222.05 14.7341Z" fill="black"/>
<path d="M891.129 113H872.481C868.633 113 865.007 112.334 861.603 111.002C858.199 109.67 855.387 107.524 853.167 104.564C851.095 101.456 850.059 97.312 850.059 92.132V54.614L850.947 50.174C850.947 43.514 849.837 38.334 847.617 34.634C845.397 30.934 840.587 29.084 833.187 29.084C826.231 29.084 819.793 30.86 813.873 34.412C807.953 37.816 803.069 42.256 799.221 47.732L783.237 24.644C786.789 20.648 791.155 16.948 796.335 13.544C801.515 10.14 807.361 7.40199 813.873 5.32999C820.533 3.11 827.711 2 835.407 2C849.171 2 859.827 5.626 867.375 12.878C875.071 19.982 878.919 30.342 878.919 43.958V81.254C878.919 83.622 879.363 85.324 880.251 86.36C881.287 87.248 882.767 87.692 884.691 87.692H891.129V113ZM814.761 115.442C806.325 115.442 799.443 113.222 794.115 108.782C788.787 104.194 786.123 97.534 786.123 88.802C786.123 80.514 788.713 73.854 793.893 68.822C799.221 63.642 806.991 59.276 817.203 55.724L853.389 42.182L856.275 61.052L826.971 73.262C822.679 75.038 819.645 76.814 817.869 78.59C816.241 80.218 815.427 82.068 815.427 84.14C815.427 86.656 816.315 88.654 818.091 90.134C820.015 91.466 822.827 92.132 826.527 92.132C830.227 92.132 833.557 91.688 836.517 90.8C839.477 89.764 841.919 88.358 843.843 86.582C845.915 84.806 847.469 82.66 848.505 80.144C849.541 77.628 850.059 74.668 850.059 71.264L850.725 81.92C849.689 86.804 847.839 91.836 845.175 97.016C842.659 102.048 838.885 106.414 833.853 110.114C828.969 113.666 822.605 115.442 814.761 115.442Z" fill="black"/>
<path d="M755.185 113H715.003L676.819 4.21997H711.895L726.991 56.39L735.427 94.574L743.641 56.39L758.737 4.21997H793.369L755.185 113Z" fill="black"/>
<path d="M631.879 115.22C620.927 115.22 611.307 112.852 603.019 108.116C594.879 103.232 588.589 96.498 584.149 87.914C579.709 79.33 577.489 69.562 577.489 58.61C577.489 47.51 579.709 37.742 584.149 29.306C588.589 20.722 594.879 14.062 603.019 9.326C611.307 4.442 620.927 2 631.879 2C643.127 2 652.895 4.442 661.183 9.326C669.619 14.062 676.057 20.722 680.497 29.306C685.085 37.742 687.379 47.51 687.379 58.61C687.379 69.562 685.085 79.33 680.497 87.914C676.057 96.498 669.619 103.232 661.183 108.116C652.895 112.852 643.127 115.22 631.879 115.22ZM632.323 89.468C636.911 89.468 640.907 88.432 644.311 86.36C647.715 84.288 650.379 81.032 652.303 76.592C654.227 72.004 655.189 66.01 655.189 58.61C655.189 51.21 654.227 45.29 652.303 40.85C650.379 36.262 647.715 32.932 644.311 30.86C640.907 28.788 636.911 27.752 632.323 27.752C627.883 27.752 623.961 28.788 620.557 30.86C617.153 32.932 614.489 36.262 612.565 40.85C610.641 45.29 609.679 51.21 609.679 58.61C609.679 66.01 610.641 72.004 612.565 76.592C614.489 81.032 617.153 84.288 620.557 86.36C623.961 88.432 627.883 89.468 632.323 89.468Z" fill="black"/>
<path d="M573.786 113H542.04V48.176C542.04 41.516 540.856 36.262 538.488 32.414C536.268 28.566 531.458 26.642 524.058 26.642C519.026 26.642 515.03 27.604 512.07 29.528C509.258 31.452 507.186 34.338 505.854 38.186C504.67 42.034 504.078 46.918 504.078 52.838L503.19 41.516C503.93 34.856 505.632 28.492 508.296 22.424C510.96 16.356 514.882 11.472 520.062 7.772C525.39 3.924 532.198 2 540.486 2C550.846 2 558.986 5.034 564.906 11.102C570.826 17.17 573.786 25.828 573.786 37.076V113ZM504.078 113H472.332V4.22H504.078V113Z" fill="black"/>
<path d="M424.287 115.22C415.851 115.22 409.265 113.296 404.529 109.448C399.793 105.6 396.389 100.716 394.317 94.796C392.245 88.728 390.839 82.364 390.099 75.704L390.987 64.382C390.987 70.302 391.727 75.186 393.207 79.034C394.835 82.882 397.203 85.768 400.311 87.692C403.419 89.616 407.193 90.578 411.633 90.578C418.885 90.578 424.583 87.84 428.727 82.364C433.019 76.74 435.165 68.822 435.165 58.61C435.165 48.102 433.019 40.184 428.727 34.856C424.583 29.38 418.885 26.642 411.633 26.642C407.193 26.642 403.419 27.604 400.311 29.528C397.203 31.304 394.835 34.116 393.207 37.964C391.727 41.812 390.987 46.696 390.987 52.616L390.099 41.294C390.839 34.634 392.319 28.27 394.539 22.202C396.907 16.134 400.533 11.25 405.417 7.54996C410.449 3.70195 417.183 1.77795 425.619 1.77795C434.055 1.77795 441.381 3.99795 447.597 8.43796C453.961 12.878 458.845 19.316 462.249 27.752C465.653 36.188 467.355 46.474 467.355 58.61C467.355 70.45 465.579 80.662 462.027 89.246C458.623 97.682 453.665 104.12 447.153 108.56C440.789 113 433.167 115.22 424.287 115.22ZM390.987 154.292H359.241V4.21996H390.987V154.292Z" fill="black"/>
<path d="M280.956 115.22C274 115.22 268.006 113.888 262.974 111.224C258.09 108.412 254.242 104.416 251.43 99.236C248.766 93.908 247.434 87.544 247.434 80.144V4.21997H279.18V69.044C279.18 75.704 280.364 80.958 282.732 84.806C285.248 88.654 290.132 90.578 297.384 90.578C302.416 90.578 306.338 89.616 309.15 87.692C312.11 85.768 314.182 82.882 315.366 79.034C316.55 75.186 317.142 70.302 317.142 64.382L318.252 75.704C317.512 82.364 315.736 88.728 312.924 94.796C310.26 100.716 306.338 105.6 301.158 109.448C295.978 113.296 289.244 115.22 280.956 115.22ZM348.888 113H317.142V4.21997H348.888V113Z" fill="black"/>
</svg>
